<?xml version="1.0" encoding="UTF-8"?>
<svg width="335px" height="75px" viewBox="0 0 335 75" version="1.1" xmlns="http://www.w3.org/2000/svg" xmlns:xlink="http://www.w3.org/1999/xlink">
    <!-- Generator: Sketch 47.1 (45422) - http://www.bohemiancoding.com/sketch -->
    <title>EcoSphere-Logo</title>
    <desc>Created with Sketch.</desc>
    <defs></defs>
    <g id="Page-1" stroke="none" stroke-width="1" fill="none" fill-rule="evenodd">
        <g id="logo" transform="translate(2.000000, 0.000000)">
            <g id="platform" stroke-width="1" fill-rule="evenodd" transform="translate(0.000000, 8.000000)" stroke="#5EC1EA" stroke-linecap="round" stroke-linejoin="round">
                <path d="M10,50.77 L8,49.62" id="Shape" stroke-width="4"></path>
                <path d="M17.33,55 L14,53.08" id="Shape" stroke-width="4"></path>
                <polyline id="Shape" stroke-width="4" points="30 57.69 26 60 22 57.69"></polyline>
                <path d="M42,50.77 L34,55.38" id="Shape" stroke-width="4"></path>
                <polyline id="Shape" stroke-width="4" points="52 41 52 45 48 47.31"></polyline>
                <path d="M52,26 L52,37" id="Shape" stroke-width="4"></path>
                <polyline id="Shape" stroke-width="4" points="48 12.69 52 15 52 20"></polyline>
                <path d="M39.87,8 L43.34,10" id="Shape" stroke-width="4"></path>
                <path d="M33,4.04 L36,5.77" id="Shape" stroke-width="4"></path>
                <polyline id="Shape" stroke-width="4" points="4 47.31 0 45 0 15 26 0 30 2.31"></polyline>
                <path d="M26,55 L26,58" id="Shape" stroke-width="4"></path>
                <path d="M26,43 L26,49" id="Shape" stroke-width="4"></path>
                <path d="M26,31 L26,36" id="Shape" stroke-width="4"></path>
                <path d="M26,1 L26,22" id="Shape" stroke-width="4"></path>
                <path d="M47,42.12 L51,44.42" id="Shape" stroke-width="4"></path>
                <path d="M39,37.5 L43,39.81" id="Shape" stroke-width="4"></path>
                <path d="M31,32.89 L34.66,35" id="Shape" stroke-width="4"></path>
                <path d="M20.8,27 L25.99,30" id="Shape" stroke-width="4"></path>
                <path d="M9,20.19 L16,24" id="Shape" stroke-width="4"></path>
                <path d="M0,15 L4,17.31" id="Shape" stroke-width="4"></path>
                <path d="M19.07,34 L1,44.42" id="Shape" stroke-width="4"></path>
                <path d="M31,27.12 L26,30" id="Shape" stroke-width="4"></path>
                <path d="M42,20.77 L36,24.23" id="Shape" stroke-width="4"></path>
                <path d="M51,15.58 L46.8,18" id="Shape" stroke-width="4"></path>
            </g>
            <text id="EcoSphere" font-family="AvenirNext-Regular, Avenir Next" font-size="55" font-weight="normal" fill="#757575">
                <tspan x="58.7975" y="55">EcoSphere</tspan>
            </text>
        </g>
    </g>
</svg>