<svg id="icons" xmlns="http://www.w3.org/2000/svg" viewBox="0 0 64 64"><defs><style>.cls-1{fill:none;stroke:#5ec1ea;stroke-linecap:round;stroke-linejoin:round;stroke-width:4px;}</style></defs><title>uip-icons-light-blue</title><g id="project"><line class="cls-1" x1="16" y1="52.77" x2="14" y2="51.62"/><line class="cls-1" x1="23.33" y1="57" x2="20" y2="55.08"/><polyline class="cls-1" points="36 59.69 32 62 28 59.69"/><line class="cls-1" x1="48" y1="52.77" x2="40" y2="57.38"/><polyline class="cls-1" points="58 43 58 47 54 49.31"/><line class="cls-1" x1="58" y1="28" x2="58" y2="39"/><polyline class="cls-1" points="54 14.69 58 17 58 22"/><line class="cls-1" x1="45.87" y1="10" x2="49.34" y2="12"/><line class="cls-1" x1="39" y1="6.04" x2="42" y2="7.77"/><polyline class="cls-1" points="10 49.31 6 47 6 17 32 2 36 4.31"/><line class="cls-1" x1="32" y1="57" x2="32" y2="60"/><line class="cls-1" x1="32" y1="45" x2="32" y2="51"/><line class="cls-1" x1="32" y1="33" x2="32" y2="38"/><line class="cls-1" x1="32" y1="3" x2="32" y2="24"/><line class="cls-1" x1="53" y1="44.12" x2="57" y2="46.42"/><line class="cls-1" x1="45" y1="39.5" x2="49" y2="41.81"/><line class="cls-1" x1="37" y1="34.89" x2="40.66" y2="37"/><line class="cls-1" x1="26.8" y1="29" x2="31.99" y2="32"/><line class="cls-1" x1="15" y1="22.19" x2="22" y2="26"/><line class="cls-1" x1="6" y1="17" x2="10" y2="19.31"/><line class="cls-1" x1="25.07" y1="36" x2="7" y2="46.42"/><line class="cls-1" x1="37" y1="29.12" x2="32" y2="32"/><line class="cls-1" x1="48" y1="22.77" x2="42" y2="26.23"/><line class="cls-1" x1="57" y1="17.58" x2="52.8" y2="20"/></g></svg>